<svg width="348" height="291" viewBox="0 0 348 291" fill="none" xmlns="http://www.w3.org/2000/svg">
<g clip-path="url(#clip0_143_69)">
<path d="M163.456 290.956C239.36 290.956 300.892 287.81 300.892 283.928C300.892 280.047 239.36 276.9 163.456 276.9C87.5527 276.9 26.0205 280.047 26.0205 283.928C26.0205 287.81 87.5527 290.956 163.456 290.956Z" fill="#F2F2F2"/>
<path d="M243.752 67.5261H242.191V24.7548C242.191 18.1895 239.583 11.893 234.94 7.25054C230.298 2.6081 224.001 7.24868e-06 217.436 0H126.819C120.254 -1.24262e-05 113.957 2.60806 109.315 7.25048C104.673 11.8929 102.064 18.1894 102.064 24.7548V259.401C102.064 265.966 104.673 272.263 109.315 276.905C113.957 281.548 120.254 284.156 126.819 284.156H217.436C224.001 284.156 230.298 281.548 234.94 276.905C239.583 272.263 242.191 265.967 242.191 259.401V97.9714H243.752L243.752 67.5261Z" fill="#3F3D56"/>
<path d="M236.922 24.9276V259.229C236.922 264.132 234.974 268.834 231.507 272.301C228.04 275.768 223.338 277.716 218.435 277.716H127.383C122.48 277.716 117.778 275.768 114.311 272.301C110.844 268.834 108.896 264.132 108.896 259.229V24.9276C108.896 20.0244 110.844 15.3221 114.311 11.8551C117.778 8.38803 122.48 6.44022 127.383 6.44012H138.429C137.886 7.77387 137.68 9.22055 137.827 10.6529C137.975 12.0853 138.472 13.4595 139.275 14.6545C140.079 15.8496 141.163 16.829 142.434 17.5065C143.704 18.184 145.122 18.5389 146.562 18.54H198.475C199.915 18.5389 201.333 18.184 202.604 17.5065C203.874 16.8289 204.959 15.8496 205.762 14.6545C206.565 13.4594 207.063 12.0853 207.21 10.6529C207.358 9.22055 207.151 7.77387 206.608 6.44012H218.435C223.338 6.44022 228.04 8.38803 231.507 11.8551C234.974 15.3221 236.922 20.0244 236.922 24.9276Z" fill="white"/>
<path d="M207.59 125.957C206.985 126.273 206.369 126.573 205.743 126.855C205.173 127.113 204.594 127.355 204.006 127.581C203.791 127.663 203.573 127.745 203.354 127.827C201.625 128.454 199.85 128.944 198.044 129.292C197.15 129.467 196.244 129.605 195.326 129.705C194.569 129.791 193.804 129.852 193.031 129.889C192.48 129.916 191.929 129.928 191.375 129.928C189.179 129.929 186.989 129.724 184.831 129.315C184.269 129.213 183.719 129.092 183.168 128.96C180.505 128.321 177.927 127.37 175.488 126.125C175.269 126.016 175.051 125.899 174.832 125.785C174.508 125.614 174.192 125.434 173.875 125.247C174.028 125.036 174.192 124.829 174.36 124.626C176.187 122.362 178.47 120.508 181.062 119.185C183.653 117.863 186.494 117.101 189.399 116.95C192.305 116.799 195.209 117.262 197.924 118.309C200.638 119.355 203.102 120.962 205.154 123.025C205.866 123.74 206.526 124.504 207.13 125.313C207.289 125.524 207.442 125.739 207.59 125.957Z" fill="black"/>
<path d="M192.154 108.806C201.622 108.806 209.298 101.13 209.298 91.6619C209.298 82.1934 201.622 74.5176 192.154 74.5176C182.685 74.5176 175.009 82.1934 175.009 91.6619C175.009 101.13 182.685 108.806 192.154 108.806Z" fill="#2F2E41"/>
<path d="M196.714 108.83C202.898 105.45 205.17 97.6971 201.79 91.5135C198.41 85.33 190.657 83.0574 184.473 86.4376C178.29 89.8179 176.017 97.5709 179.397 103.754C182.778 109.938 190.531 112.211 196.714 108.83Z" fill="#A0616A"/>
<path d="M204.001 89.608C201.085 91.6177 197.624 92.6872 194.083 92.6731C195.346 93.549 196.784 94.1406 198.298 94.4072C193.59 95.4172 188.723 95.4446 184.004 94.4876C182.955 94.3193 181.943 93.9717 181.012 93.4598C180.548 93.2007 180.143 92.8469 179.825 92.4213C179.507 91.9957 179.282 91.5079 179.165 90.9896C178.851 89.1981 180.247 87.5704 181.698 86.4734C183.919 84.8195 186.48 83.6799 189.196 83.1373C191.912 82.5946 194.714 82.6624 197.4 83.3356C199.154 83.789 200.911 84.5551 202.051 85.9637C203.19 87.3723 203.527 89.544 202.442 90.9945L204.001 89.608Z" fill="#2F2E41"/>
<path d="M191.375 59.6482C183.712 59.6471 176.258 62.1516 170.15 66.7802C164.042 71.4087 159.615 77.9073 157.543 85.2856C155.472 92.6638 155.869 100.517 158.676 107.648C161.482 114.78 166.543 120.798 173.087 124.786L173.313 124.919C173.501 125.032 173.688 125.141 173.876 125.247C174.192 125.434 174.508 125.614 174.832 125.785C175.051 125.899 175.269 126.016 175.488 126.125C177.927 127.37 180.505 128.321 183.168 128.96C183.719 129.092 184.269 129.213 184.831 129.315C186.989 129.724 189.18 129.929 191.375 129.928C191.93 129.928 192.48 129.916 193.031 129.889C193.804 129.854 194.569 129.793 195.327 129.705C196.244 129.604 197.15 129.466 198.044 129.292C199.85 128.944 201.625 128.454 203.354 127.827C203.573 127.745 203.791 127.663 204.006 127.581C204.596 127.355 205.175 127.113 205.743 126.855C206.368 126.574 206.984 126.275 207.59 125.957C213.669 122.774 218.692 117.895 222.052 111.913C222.068 111.882 222.088 111.85 222.103 111.819C223.896 108.603 225.167 105.122 225.871 101.508C226.859 96.4191 226.709 91.1752 225.433 86.1513C224.157 81.1274 221.785 76.4478 218.489 72.4477C215.192 68.4475 211.052 65.2257 206.365 63.0129C201.677 60.8001 196.559 59.6511 191.375 59.6482ZM221.463 111.362C221.432 111.417 221.404 111.472 221.373 111.522C218.08 117.417 213.127 122.212 207.13 125.313C206.532 125.625 205.924 125.918 205.306 126.191C204.795 126.422 204.272 126.64 203.745 126.843C203.522 126.929 203.296 127.015 203.069 127.093C201.576 127.639 200.045 128.077 198.489 128.405C197.335 128.651 196.168 128.835 194.995 128.956C194.272 129.034 193.538 129.089 192.8 129.116C192.328 129.135 191.852 129.147 191.375 129.147C189.25 129.15 187.13 128.952 185.042 128.558C183.772 128.323 182.517 128.016 181.282 127.636C179.402 127.055 177.574 126.314 175.82 125.422C175.617 125.317 175.414 125.211 175.215 125.102C174.93 124.95 174.641 124.794 174.36 124.626C174.149 124.509 173.938 124.384 173.731 124.259C173.61 124.188 173.489 124.114 173.368 124.04C167.63 120.516 163.053 115.386 160.205 109.285C157.357 103.183 156.362 96.3803 157.345 89.7191C158.328 83.0579 161.245 76.8319 165.734 71.8134C170.223 66.7949 176.087 63.2049 182.598 61.4886C189.109 59.7724 195.98 60.0054 202.36 62.1589C208.74 64.3124 214.347 68.2915 218.485 73.6027C222.624 78.9138 225.112 85.3231 225.642 92.0356C226.171 98.7481 224.718 105.468 221.463 111.362Z" fill="#3F3D56"/>
<path d="M183.472 74.7542C183.287 72.8144 180.911 71.6203 179.053 72.2062C177.195 72.7921 175.974 74.6632 175.606 76.5765C175.428 77.3822 175.412 78.2151 175.557 79.0273C175.702 79.8395 176.006 80.6151 176.451 81.3096C177.39 82.6614 179.117 83.505 180.726 83.1618C182.564 82.7701 183.838 80.9755 184.202 79.1321C184.566 77.2886 184.205 75.388 183.843 73.5439L183.472 74.7542Z" fill="#2F2E41"/>
<path d="M209.625 77.5252C209.44 75.5854 207.064 74.3913 205.206 74.9772C203.347 75.5631 202.127 77.4342 201.759 79.3475C201.581 80.1532 201.564 80.9861 201.709 81.7983C201.855 82.6105 202.159 83.3861 202.604 84.0805C203.543 85.4324 205.269 86.276 206.879 85.9328C208.717 85.5411 209.99 83.7465 210.355 81.9031C210.719 80.0596 210.357 78.159 209.996 76.3149L209.625 77.5252Z" fill="#2F2E41"/>
<path d="M130.636 108.832C130.393 108.832 130.152 108.781 129.93 108.682C129.708 108.584 129.508 108.44 129.345 108.26L109.97 87.124C109.75 86.8847 109.483 86.6936 109.186 86.5627C108.888 86.4319 108.567 86.3641 108.242 86.3637H5.86027C4.30656 86.362 2.81699 85.744 1.71836 84.6454C0.619722 83.5467 0.00174442 82.0572 0 80.5035V43.5822C0.00174338 42.0285 0.619722 40.5389 1.71836 39.4403C2.81699 38.3416 4.30656 37.7237 5.86027 37.7219H138.504C140.057 37.7237 141.547 38.3416 142.646 39.4403C143.744 40.5389 144.362 42.0285 144.364 43.5822V80.5035C144.362 82.0572 143.744 83.5468 142.646 84.6454C141.547 85.744 140.057 86.362 138.504 86.3637H134.743C134.122 86.3645 133.526 86.6117 133.086 87.0512C132.647 87.4908 132.399 88.0867 132.399 88.7083V107.072C132.4 107.427 132.294 107.773 132.094 108.066C131.893 108.358 131.609 108.583 131.278 108.71C131.073 108.79 130.856 108.832 130.636 108.832Z" fill="white"/>
<path d="M130.636 108.832C130.393 108.832 130.152 108.781 129.93 108.682C129.708 108.584 129.508 108.44 129.345 108.26L109.97 87.124C109.75 86.8847 109.483 86.6936 109.186 86.5627C108.888 86.4319 108.567 86.3641 108.242 86.3637H5.86027C4.30656 86.362 2.81699 85.744 1.71836 84.6454C0.619722 83.5467 0.00174442 82.0572 0 80.5035V43.5822C0.00174338 42.0285 0.619722 40.5389 1.71836 39.4403C2.81699 38.3416 4.30656 37.7237 5.86027 37.7219H138.504C140.057 37.7237 141.547 38.3416 142.646 39.4403C143.744 40.5389 144.362 42.0285 144.364 43.5822V80.5035C144.362 82.0572 143.744 83.5468 142.646 84.6454C141.547 85.744 140.057 86.362 138.504 86.3637H134.743C134.122 86.3645 133.526 86.6117 133.086 87.0512C132.647 87.4908 132.399 88.0867 132.399 88.7083V107.072C132.4 107.427 132.294 107.773 132.094 108.066C131.893 108.358 131.609 108.583 131.278 108.71C131.073 108.79 130.856 108.832 130.636 108.832ZM5.86027 38.5028C4.5136 38.5043 3.22252 39.04 2.27028 39.9922C1.31804 40.9444 0.782406 42.2355 0.780886 43.5822V80.5035C0.782408 81.8501 1.31805 83.1412 2.27028 84.0935C3.22252 85.0457 4.5136 85.5813 5.86027 85.5829H108.242C108.675 85.5833 109.104 85.6736 109.5 85.8481C109.897 86.0225 110.253 86.2773 110.546 86.5963L129.92 107.732C130.053 107.877 130.227 107.979 130.419 108.024C130.611 108.068 130.811 108.054 130.995 107.983C131.178 107.911 131.336 107.786 131.447 107.624C131.558 107.461 131.618 107.269 131.618 107.072V88.7083C131.619 87.8797 131.948 87.0852 132.534 86.4993C133.12 85.9134 133.915 85.5838 134.743 85.5829H138.504C139.85 85.5813 141.141 85.0457 142.094 84.0935C143.046 83.1412 143.581 81.8501 143.583 80.5035V43.5822C143.581 42.2355 143.046 40.9444 142.094 39.9922C141.141 39.04 139.85 38.5043 138.504 38.5028H5.86027Z" fill="#3F3D56"/>
<path d="M14.3745 54.009C17.2066 54.009 19.5025 51.7131 19.5025 48.881C19.5025 46.0489 17.2066 43.7531 14.3745 43.7531C11.5425 43.7531 9.24658 46.0489 9.24658 48.881C9.24658 51.7131 11.5425 54.009 14.3745 54.009Z" fill="black"/>
<path d="M132.521 77.2557H11.8432C11.4837 77.2561 11.1278 77.1857 10.7956 77.0485C10.4634 76.9112 10.1615 76.7098 9.90718 76.4558C9.65287 76.2018 9.45112 75.9002 9.31348 75.5682C9.17583 75.2361 9.10498 74.8802 9.10498 74.5208C9.10498 74.1614 9.17583 73.8055 9.31348 73.4734C9.45112 73.1414 9.65287 72.8398 9.90718 72.5858C10.1615 72.3318 10.4634 72.1304 10.7956 71.9931C11.1278 71.8559 11.4837 71.7855 11.8432 71.7859H132.521C133.246 71.7868 133.941 72.0753 134.453 72.5881C134.965 73.1009 135.253 73.796 135.253 74.5208C135.253 75.2456 134.965 75.9407 134.453 76.4535C133.941 76.9663 133.246 77.2549 132.521 77.2557Z" fill="#E6E6E6"/>
<path d="M93.2069 65.6323H11.8432C11.4837 65.6327 11.1278 65.5623 10.7956 65.4251C10.4634 65.2878 10.1615 65.0864 9.90718 64.8324C9.65287 64.5784 9.45112 64.2768 9.31348 63.9448C9.17583 63.6127 9.10498 63.2568 9.10498 62.8974C9.10498 62.538 9.17583 62.1821 9.31348 61.85C9.45112 61.518 9.65287 61.2164 9.90718 60.9624C10.1615 60.7084 10.4634 60.507 10.7956 60.3697C11.1278 60.2325 11.4837 60.162 11.8432 60.1625H93.2069C93.9322 60.1625 94.6279 60.4506 95.1408 60.9635C95.6537 61.4764 95.9418 62.1721 95.9418 62.8974C95.9418 63.6227 95.6537 64.3184 95.1408 64.8313C94.6279 65.3442 93.9322 65.6323 93.2069 65.6323Z" fill="#E6E6E6"/>
<path d="M216.722 234.043C216.391 233.915 216.107 233.691 215.906 233.398C215.706 233.105 215.6 232.759 215.601 232.404V214.041C215.601 213.419 215.354 212.823 214.914 212.383C214.474 211.944 213.879 211.697 213.257 211.696H209.496C207.943 211.694 206.453 211.076 205.355 209.978C204.256 208.879 203.638 207.389 203.636 205.836V168.914C203.638 167.361 204.256 165.871 205.355 164.772C206.453 163.674 207.943 163.056 209.496 163.054H342.14C343.694 163.056 345.183 163.674 346.282 164.772C347.38 165.871 347.998 167.361 348 168.914V205.836C347.998 207.389 347.38 208.879 346.282 209.978C345.183 211.076 343.694 211.694 342.14 211.696H239.758C239.433 211.696 239.112 211.764 238.814 211.895C238.517 212.026 238.25 212.217 238.03 212.456L218.655 233.592C218.492 233.772 218.292 233.916 218.07 234.014C217.848 234.113 217.607 234.164 217.364 234.164C217.144 234.164 216.927 234.123 216.722 234.043Z" fill="white"/>
<path d="M216.722 234.043C216.391 233.915 216.107 233.691 215.906 233.398C215.706 233.105 215.6 232.759 215.601 232.404V214.041C215.601 213.419 215.354 212.823 214.914 212.383C214.474 211.944 213.879 211.697 213.257 211.696H209.496C207.943 211.694 206.453 211.076 205.355 209.978C204.256 208.879 203.638 207.389 203.636 205.836V168.914C203.638 167.361 204.256 165.871 205.355 164.772C206.453 163.674 207.943 163.056 209.496 163.054H342.14C343.694 163.056 345.183 163.674 346.282 164.772C347.38 165.871 347.998 167.361 348 168.914V205.836C347.998 207.389 347.38 208.879 346.282 209.978C345.183 211.076 343.694 211.694 342.14 211.696H239.758C239.433 211.696 239.112 211.764 238.814 211.895C238.517 212.026 238.25 212.217 238.03 212.456L218.655 233.592C218.492 233.772 218.292 233.916 218.07 234.014C217.848 234.113 217.607 234.164 217.364 234.164C217.144 234.164 216.927 234.123 216.722 234.043ZM209.496 163.835C208.15 163.837 206.859 164.372 205.906 165.324C204.954 166.277 204.419 167.568 204.417 168.914V205.836C204.419 207.182 204.954 208.473 205.906 209.426C206.859 210.378 208.15 210.914 209.496 210.915H213.257C214.086 210.916 214.88 211.246 215.466 211.832C216.052 212.417 216.381 213.212 216.382 214.041V232.404C216.382 232.601 216.442 232.793 216.553 232.956C216.664 233.118 216.822 233.243 217.005 233.315C217.189 233.386 217.389 233.4 217.581 233.356C217.773 233.311 217.947 233.21 218.08 233.065L237.454 211.929C237.747 211.61 238.103 211.355 238.5 211.18C238.896 211.006 239.325 210.916 239.758 210.915H342.14C343.487 210.914 344.778 210.378 345.73 209.426C346.682 208.473 347.218 207.182 347.219 205.836V168.914C347.218 167.568 346.682 166.277 345.73 165.324C344.778 164.372 343.487 163.837 342.14 163.835H209.496Z" fill="#3F3D56"/>
<path d="M175.378 245.476C169.939 248.959 163.637 250.858 157.178 250.961C150.72 251.064 144.361 249.366 138.813 246.057C139.789 244.241 141.025 242.577 142.483 241.118C144.733 238.858 147.47 237.144 150.486 236.107C153.501 235.07 156.714 234.738 159.878 235.136C163.041 235.535 166.072 236.653 168.736 238.406C171.4 240.158 173.627 242.498 175.245 245.245C175.288 245.32 175.335 245.398 175.378 245.476Z" fill="black"/>
<path d="M155.569 226.805C165.101 226.805 172.827 219.078 172.827 209.546C172.827 200.015 165.101 192.288 155.569 192.288C146.038 192.288 138.311 200.015 138.311 209.546C138.311 219.078 146.038 226.805 155.569 226.805Z" fill="#2F2E41"/>
<path d="M168.411 221.719C171.814 215.495 169.526 207.69 163.302 204.287C157.077 200.885 149.272 203.172 145.87 209.397C142.467 215.622 144.755 223.426 150.979 226.829C157.204 230.232 165.008 227.944 168.411 221.719Z" fill="#FFB8B8"/>
<path d="M143.643 207.479C146.578 209.502 150.062 210.579 153.627 210.564C152.355 211.446 150.908 212.042 149.384 212.31C154.124 213.327 159.022 213.354 163.773 212.391C164.829 212.222 165.848 211.872 166.785 211.356C167.252 211.095 167.659 210.739 167.979 210.311C168.3 209.882 168.526 209.391 168.644 208.87C168.96 207.066 167.555 205.428 166.094 204.323C163.858 202.659 161.28 201.511 158.547 200.965C155.813 200.419 152.992 200.487 150.288 201.165C148.522 201.621 146.753 202.392 145.606 203.81C144.459 205.228 144.12 207.414 145.212 208.875L143.643 207.479Z" fill="#2F2E41"/>
<path d="M156.625 251.356C148.173 251.353 140.005 248.303 133.62 242.765C127.235 237.228 123.06 229.573 121.862 221.207C120.664 212.84 122.523 204.322 127.097 197.214C131.672 190.107 138.655 184.887 146.767 182.513C154.879 180.138 163.574 180.768 171.259 184.286C178.945 187.804 185.103 193.976 188.606 201.668C192.109 209.36 192.721 218.057 190.331 226.164C187.94 234.271 182.706 241.244 175.59 245.804C169.93 249.433 163.348 251.36 156.625 251.356ZM156.625 181.857C149.829 181.856 143.185 183.871 137.534 187.647C131.882 191.422 127.477 196.789 124.876 203.068C122.275 209.347 121.594 216.256 122.92 222.922C124.246 229.588 127.519 235.711 132.324 240.517C137.13 245.323 143.253 248.595 149.919 249.921C156.585 251.247 163.495 250.566 169.774 247.965C176.053 245.364 181.419 240.959 185.195 235.308C188.97 229.656 190.985 223.012 190.984 216.216C190.974 207.106 187.351 198.373 180.91 191.932C174.468 185.49 165.735 181.867 156.625 181.857Z" fill="#3F3D56"/>
<path d="M220.138 178.951C222.97 178.951 225.266 176.655 225.266 173.823C225.266 170.991 222.97 168.695 220.138 168.695C217.306 168.695 215.01 170.991 215.01 173.823C215.01 176.655 217.306 178.951 220.138 178.951Z" fill="black"/>
<path d="M338.284 202.197H217.606C217.247 202.198 216.891 202.127 216.559 201.99C216.227 201.853 215.925 201.652 215.67 201.398C215.416 201.144 215.214 200.842 215.077 200.51C214.939 200.178 214.868 199.822 214.868 199.463C214.868 199.103 214.939 198.747 215.077 198.415C215.214 198.083 215.416 197.782 215.67 197.528C215.925 197.274 216.227 197.072 216.559 196.935C216.891 196.798 217.247 196.727 217.606 196.728H338.284C339.01 196.728 339.705 197.016 340.218 197.529C340.731 198.042 341.019 198.737 341.019 199.463C341.019 200.188 340.731 200.884 340.218 201.396C339.705 201.909 339.01 202.197 338.284 202.197Z" fill="#E6E6E6"/>
<path d="M298.97 190.574H217.606C217.247 190.575 216.891 190.504 216.559 190.367C216.227 190.23 215.925 190.028 215.67 189.774C215.416 189.52 215.214 189.219 215.077 188.887C214.939 188.554 214.868 188.199 214.868 187.839C214.868 187.48 214.939 187.124 215.077 186.792C215.214 186.46 215.416 186.158 215.67 185.904C215.925 185.65 216.227 185.449 216.559 185.312C216.891 185.174 217.247 185.104 217.606 185.104H298.97C299.695 185.105 300.39 185.394 300.902 185.906C301.414 186.419 301.702 187.114 301.702 187.839C301.702 188.564 301.414 189.259 300.902 189.772C300.39 190.285 299.695 190.573 298.97 190.574Z" fill="#E6E6E6"/>
<path d="M216.557 237.538C221.841 237.538 226.124 237.063 226.124 236.476C226.124 235.89 221.841 235.414 216.557 235.414C211.273 235.414 206.989 235.89 206.989 236.476C206.989 237.063 211.273 237.538 216.557 237.538Z" fill="#F2F2F2"/>
<path d="M131.05 112.596C136.334 112.596 140.617 112.121 140.617 111.534C140.617 110.948 136.334 110.472 131.05 110.472C125.766 110.472 121.482 110.948 121.482 111.534C121.482 112.121 125.766 112.596 131.05 112.596Z" fill="#F2F2F2"/>
</g>
<defs>
<clipPath id="clip0_143_69">
<rect width="348" height="290.956" fill="white"/>
</clipPath>
</defs>
</svg>
